<svg width="332" height="75" viewBox="0 0 332 75" fill="none" xmlns="http://www.w3.org/2000/svg">
<path d="M70.7761 7.52V0H0.232056V70.543H7.75306V74.367H55.3311C66.3511 74.367 74.6001 67.229 74.6001 56.278V38.965V20.889V7.52H70.7761V7.52ZM4.23206 4H66.7751V55.234C66.7751 61.469 61.7021 66.543 55.4661 66.543H38.2601H4.23206V4Z" fill="#F1A208"/>
<path d="M116.879 46.066C115.735 46.743 114.727 47.245 113.852 47.571C112.977 47.898 112.049 48.108 111.069 48.201C109.132 48.411 107.3 48.207 105.574 47.589C103.847 46.971 102.328 46.067 101.017 44.876C99.7061 43.687 98.6681 42.269 97.9021 40.624C97.1361 38.978 96.7541 37.224 96.7541 35.356C96.7541 33.536 97.1011 31.809 97.7961 30.175C98.4901 28.542 99.4651 27.119 100.718 25.905C101.971 24.692 103.456 23.764 105.171 23.123C106.886 22.482 108.781 22.23 110.859 22.37C111.675 22.417 112.451 22.552 113.187 22.772C113.922 22.995 114.592 23.256 115.199 23.56L113.519 26.919C112.749 26.569 112.095 26.348 111.559 26.254C111.022 26.161 110.415 26.114 109.739 26.114C108.526 26.114 107.364 26.365 106.257 26.867C105.149 27.369 104.174 28.039 103.335 28.879C102.495 29.72 101.824 30.693 101.322 31.802C100.82 32.91 100.57 34.072 100.57 35.284C100.57 36.521 100.826 37.693 101.34 38.802C101.853 39.91 102.535 40.885 103.387 41.725C104.239 42.565 105.213 43.236 106.31 43.737C107.406 44.24 108.55 44.49 109.74 44.49C110.183 44.49 110.597 44.472 110.983 44.437C111.368 44.402 111.753 44.333 112.138 44.227C112.523 44.123 112.92 43.977 113.328 43.789C113.736 43.602 114.197 43.357 114.711 43.055L116.879 46.066Z" fill="white"/>
<path d="M126.189 29.616C127.472 29.616 128.679 29.861 129.811 30.351C130.943 30.84 131.929 31.505 132.769 32.346C133.609 33.186 134.274 34.178 134.764 35.321C135.254 36.465 135.499 37.678 135.499 38.961C135.499 40.245 135.254 41.452 134.764 42.584C134.274 43.716 133.609 44.701 132.769 45.541C131.929 46.381 130.943 47.046 129.811 47.536C128.679 48.026 127.472 48.271 126.189 48.271C124.905 48.271 123.698 48.026 122.566 47.536C121.434 47.046 120.442 46.381 119.591 45.541C118.739 44.701 118.069 43.716 117.578 42.584C117.088 41.452 116.843 40.245 116.843 38.961C116.843 37.679 117.088 36.465 117.578 35.321C118.068 34.178 118.739 33.186 119.591 32.346C120.443 31.505 121.434 30.84 122.566 30.351C123.698 29.861 124.905 29.616 126.189 29.616ZM126.189 44.63C126.982 44.63 127.723 44.484 128.411 44.192C129.099 43.901 129.7 43.499 130.214 42.985C130.727 42.472 131.135 41.871 131.439 41.182C131.742 40.494 131.894 39.753 131.894 38.959C131.894 38.166 131.742 37.426 131.439 36.736C131.135 36.048 130.727 35.448 130.214 34.934C129.7 34.42 129.099 34.012 128.411 33.708C127.723 33.405 126.982 33.253 126.189 33.253C125.395 33.253 124.654 33.405 123.966 33.708C123.278 34.012 122.676 34.42 122.163 34.934C121.65 35.448 121.241 36.048 120.938 36.736C120.634 37.425 120.483 38.166 120.483 38.959C120.483 39.753 120.634 40.494 120.938 41.182C121.241 41.87 121.649 42.472 122.163 42.985C122.676 43.499 123.277 43.901 123.966 44.192C124.654 44.485 125.395 44.63 126.189 44.63Z" fill="white"/>
<path d="M138.999 48.271V29.616H142.814L142.779 32.206C143.082 31.74 143.49 31.309 144.004 30.911C144.447 30.585 145.013 30.287 145.701 30.018C146.389 29.75 147.259 29.616 148.308 29.616C149.615 29.616 150.659 29.82 151.441 30.228C152.222 30.637 152.817 31.185 153.226 31.874C153.634 32.562 153.902 33.344 154.031 34.219C154.159 35.094 154.223 35.998 154.223 36.932V48.272H150.408V36.687C150.408 35.963 150.164 35.31 149.677 34.727C149.19 34.144 148.48 33.852 147.552 33.852C146.925 33.852 146.326 33.945 145.758 34.131C145.189 34.319 144.689 34.599 144.259 34.972C143.829 35.345 143.481 35.812 143.214 36.371C142.947 36.932 142.814 37.585 142.814 38.331V48.271H138.999Z" fill="white"/>
<path d="M165.704 48.271L156.324 29.616H160.874L165.704 39.416L170.534 29.616H175.084L165.704 48.271Z" fill="white"/>
<path d="M184.813 29.581C186.12 29.581 187.228 29.773 188.138 30.159C189.048 30.544 189.806 31.028 190.413 31.611C191.019 32.194 191.504 32.841 191.866 33.553C192.227 34.265 192.496 34.948 192.671 35.601C192.846 36.254 192.951 36.831 192.986 37.333C193.021 37.835 193.038 38.179 193.038 38.365V40.185H179.598C179.598 40.44 179.691 40.804 179.878 41.279C180.064 41.754 180.362 42.227 180.77 42.702C181.178 43.177 181.715 43.588 182.38 43.934C183.045 44.282 183.855 44.455 184.812 44.455C185.792 44.455 186.673 44.362 187.455 44.175C188.237 43.989 188.919 43.779 189.503 43.545C190.179 43.289 190.786 42.985 191.323 42.636V46.539C191.136 46.752 190.792 46.963 190.29 47.176C189.788 47.388 189.21 47.57 188.558 47.723C187.905 47.876 187.24 48.006 186.563 48.112C185.886 48.218 185.303 48.271 184.813 48.271C184.556 48.271 184.154 48.236 183.605 48.166C183.057 48.097 182.444 47.938 181.768 47.693C181.091 47.449 180.403 47.104 179.703 46.661C179.003 46.219 178.361 45.635 177.778 44.911C177.195 44.188 176.716 43.296 176.343 42.233C175.969 41.171 175.783 39.894 175.783 38.401C175.783 37.375 175.987 36.336 176.395 35.286C176.803 34.236 177.393 33.291 178.163 32.451C178.933 31.611 179.878 30.923 180.998 30.387C182.118 29.849 183.39 29.581 184.813 29.581ZM189.223 37.071C189.13 36.278 188.908 35.578 188.558 34.971C188.255 34.434 187.817 33.944 187.245 33.5C186.673 33.058 185.874 32.835 184.848 32.835C183.821 32.835 182.97 33.005 182.293 33.343C181.616 33.682 181.08 34.078 180.683 34.533C180.286 34.987 180.006 35.455 179.843 35.932C179.679 36.411 179.598 36.789 179.598 37.07H189.223V37.071Z" fill="white"/>
<path d="M197.098 29.616H200.913V31.926C201.24 31.506 201.706 31.121 202.313 30.772C202.826 30.492 203.503 30.229 204.343 29.984C205.183 29.739 206.233 29.617 207.493 29.617V33.432C206.863 33.432 206.163 33.491 205.393 33.607C204.623 33.724 203.906 33.917 203.241 34.184C202.576 34.453 202.021 34.809 201.578 35.251C201.135 35.694 200.913 36.243 200.913 36.897V48.272H197.098V29.616V29.616Z" fill="white"/>
<path d="M221.283 33.991H217.118V48.271H213.233V33.991H210.293V30.176H213.233V23.666L217.118 22.301V30.176H221.283V33.991Z" fill="white"/>
<path d="M235.833 48.271V22.3H251.793V25.905H239.648V33.745H249.448V37.35H239.648V48.27H235.833V48.271Z" fill="white"/>
<path d="M262.537 29.616C263.82 29.616 265.027 29.861 266.159 30.351C267.291 30.84 268.277 31.505 269.117 32.346C269.957 33.186 270.622 34.178 271.112 35.321C271.602 36.465 271.847 37.678 271.847 38.961C271.847 40.245 271.602 41.452 271.112 42.584C270.622 43.716 269.957 44.701 269.117 45.541C268.277 46.381 267.291 47.046 266.159 47.536C265.027 48.026 263.82 48.271 262.537 48.271C261.253 48.271 260.046 48.026 258.914 47.536C257.782 47.046 256.79 46.381 255.939 45.541C255.087 44.701 254.417 43.716 253.926 42.584C253.436 41.452 253.191 40.245 253.191 38.961C253.191 37.679 253.436 36.465 253.926 35.321C254.416 34.178 255.087 33.186 255.939 32.346C256.791 31.505 257.782 30.84 258.914 30.351C260.046 29.861 261.254 29.616 262.537 29.616ZM262.537 44.63C263.33 44.63 264.071 44.484 264.759 44.192C265.447 43.901 266.048 43.499 266.562 42.985C267.075 42.472 267.483 41.871 267.787 41.182C268.09 40.494 268.242 39.753 268.242 38.959C268.242 38.166 268.09 37.426 267.787 36.736C267.483 36.048 267.075 35.448 266.562 34.934C266.048 34.42 265.447 34.012 264.759 33.708C264.071 33.405 263.33 33.253 262.537 33.253C261.743 33.253 261.002 33.405 260.314 33.708C259.626 34.012 259.024 34.42 258.511 34.934C257.998 35.448 257.589 36.048 257.286 36.736C256.982 37.425 256.831 38.166 256.831 38.959C256.831 39.753 256.982 40.494 257.286 41.182C257.589 41.87 257.997 42.472 258.511 42.985C259.024 43.499 259.625 43.901 260.314 44.192C261.003 44.485 261.743 44.63 262.537 44.63Z" fill="white"/>
<path d="M275.172 29.616H278.987V31.926C279.314 31.506 279.78 31.121 280.387 30.772C280.9 30.492 281.577 30.229 282.417 29.984C283.257 29.739 284.307 29.617 285.567 29.617V33.432C284.937 33.432 284.237 33.491 283.467 33.607C282.697 33.724 281.98 33.917 281.315 34.184C280.65 34.453 280.095 34.809 279.652 35.251C279.209 35.694 278.987 36.243 278.987 36.897V48.272H275.172V29.616V29.616Z" fill="white"/>
<path d="M288.367 48.271V29.616H292.182L292.177 32.206C292.48 31.74 292.887 31.309 293.4 30.911C293.843 30.585 294.408 30.287 295.095 30.018C295.783 29.75 296.65 29.616 297.699 29.616C298.7 29.616 299.545 29.773 300.232 30.089C300.92 30.403 301.473 30.754 301.893 31.139C302.313 31.524 302.615 31.892 302.802 32.242C302.989 32.592 303.082 32.802 303.082 32.872C303.082 32.942 303.175 32.814 303.361 32.487C303.548 32.161 303.874 31.787 304.34 31.367C304.806 30.947 305.423 30.551 306.192 30.177C306.961 29.805 307.94 29.617 309.129 29.617C310.318 29.617 311.302 29.827 312.082 30.247C312.863 30.667 313.492 31.169 313.97 31.752C314.448 32.336 314.785 32.919 314.984 33.502C315.182 34.086 315.282 34.541 315.282 34.867V48.272H311.467V36.617C311.467 36.314 311.367 35.993 311.168 35.654C310.969 35.316 310.711 35.019 310.395 34.762C310.079 34.505 309.715 34.289 309.305 34.114C308.895 33.939 308.467 33.852 308.022 33.852C306.732 33.852 305.678 34.225 304.858 34.972C304.038 35.719 303.628 36.838 303.628 38.331V48.271H299.813V36.686C299.813 35.962 299.568 35.309 299.078 34.726C298.588 34.143 297.876 33.851 296.943 33.851C296.313 33.851 295.712 33.944 295.141 34.13C294.569 34.318 294.061 34.598 293.619 34.971C293.175 35.344 292.825 35.811 292.569 36.37C292.312 36.931 292.184 37.584 292.184 38.33V48.27H288.367V48.271Z" fill="white"/>
<path d="M324.416 29.651C325.093 29.651 325.687 29.715 326.201 29.843C326.714 29.972 327.157 30.106 327.531 30.245C327.951 30.433 328.324 30.63 328.651 30.84L326.791 33.71C326.627 33.547 326.428 33.407 326.192 33.29C326.004 33.174 325.757 33.068 325.452 32.976C325.147 32.882 324.795 32.835 324.395 32.835C323.55 32.835 322.946 33.023 322.582 33.396C322.218 33.769 322.036 34.178 322.036 34.621C322.036 35.251 322.265 35.712 322.721 36.004C323.178 36.296 323.751 36.528 324.443 36.704C325.134 36.879 325.883 37.042 326.692 37.193C327.5 37.345 328.249 37.613 328.94 37.999C329.631 38.384 330.205 38.926 330.662 39.626C331.118 40.326 331.348 41.307 331.348 42.566C331.348 43.336 331.19 44.071 330.875 44.771C330.56 45.471 330.104 46.078 329.51 46.59C328.915 47.104 328.186 47.513 327.322 47.816C326.459 48.12 325.49 48.271 324.417 48.271C323.554 48.271 322.795 48.183 322.143 48.008C321.489 47.833 320.912 47.623 320.411 47.378C319.908 47.133 319.471 46.87 319.098 46.59C318.724 46.311 318.398 46.077 318.118 45.891L320.008 43.021C320.988 43.814 321.886 44.339 322.703 44.596C323.519 44.853 324.091 44.981 324.418 44.981C325.631 44.981 326.437 44.765 326.833 44.334C327.229 43.903 327.428 43.313 327.428 42.566C327.428 41.843 327.2 41.312 326.746 40.973C326.291 40.635 325.725 40.361 325.048 40.151C324.371 39.941 323.631 39.755 322.825 39.59C322.02 39.428 321.279 39.17 320.603 38.82C319.925 38.47 319.36 37.974 318.905 37.333C318.45 36.692 318.223 35.787 318.223 34.62C318.223 33.733 318.403 32.975 318.765 32.346C319.126 31.715 319.605 31.202 320.2 30.806C320.796 30.41 321.461 30.118 322.195 29.931C322.928 29.745 323.669 29.651 324.416 29.651Z" fill="white"/>
<path d="M38.5481 46.065C37.4041 46.743 36.3961 47.244 35.5211 47.57C34.6461 47.897 33.7181 48.107 32.7381 48.201C30.8011 48.411 28.9691 48.207 27.2431 47.588C25.5161 46.971 23.9971 46.066 22.6861 44.876C21.3751 43.686 20.3371 42.269 19.5711 40.623C18.8051 38.978 18.4231 37.223 18.4231 35.355C18.4231 33.536 18.7701 31.809 19.4651 30.175C20.1591 28.542 21.1341 27.118 22.3871 25.904C23.6401 24.691 25.1251 23.764 26.8401 23.122C28.5551 22.48 30.4501 22.229 32.5281 22.37C33.3441 22.417 34.1201 22.551 34.8561 22.772C35.5911 22.994 36.2611 23.256 36.8681 23.559L35.1881 26.919C34.4181 26.568 33.7641 26.348 33.2281 26.254C32.6911 26.161 32.0841 26.114 31.4081 26.114C30.1951 26.114 29.0331 26.365 27.9261 26.866C26.8181 27.368 25.8431 28.039 25.0041 28.879C24.1651 29.719 23.4931 30.693 22.9911 31.802C22.4891 32.91 22.2391 34.072 22.2391 35.284C22.2391 36.52 22.4951 37.693 23.0091 38.802C23.5221 39.91 24.2041 40.884 25.0561 41.724C25.9081 42.564 26.8821 43.235 27.9791 43.737C29.0751 44.239 30.2191 44.49 31.4091 44.49C31.8521 44.49 32.2661 44.472 32.6521 44.437C33.0371 44.402 33.4221 44.332 33.8071 44.227C34.1921 44.122 34.5891 43.976 34.9971 43.789C35.4051 43.602 35.8661 43.357 36.3801 43.054L38.5481 46.065Z" fill="#F1A208"/>
<path d="M47.2451 26.116C46.6971 26.185 46.2831 26.308 46.0031 26.483C45.7231 26.658 45.5421 26.897 45.4601 27.201C45.3781 27.504 45.3381 27.889 45.3381 28.355V30.21H49.5031V34.024H45.3381V48.269H41.5231V34.024H38.5131V30.21H41.4881V28.285C41.4881 26.814 41.7681 25.683 42.3281 24.889C42.8881 24.096 43.5761 23.519 44.3931 23.157C45.2091 22.796 46.0791 22.58 47.0001 22.51C47.9211 22.44 48.7561 22.405 49.5031 22.405V26.01C48.5461 26.01 47.7931 26.045 47.2451 26.116Z" fill="#F1A208"/>
</svg>
