<svg width="50" height="50" viewBox="0 0 50 50" fill="none" xmlns="http://www.w3.org/2000/svg">
<g id="Icon=Visibility" clip-path="url(#clip0_567_568)">
<g id="visibility">
<mask id="mask0_567_568" style="mask-type:alpha" maskUnits="userSpaceOnUse" x="0" y="0" width="50" height="50">
<rect id="Bounding box" width="50" height="50" fill="#D9D9D9"/>
</mask>
<g mask="url(#mask0_567_568)">
<path id="visibility_2" d="M25.0094 31.5705C27.1266 31.5705 28.923 30.8295 30.3987 29.3476C31.8744 27.8656 32.6122 26.066 32.6122 23.9489C32.6122 21.8318 31.8712 20.0354 30.3892 18.5597C28.9073 17.084 27.1077 16.3461 24.9906 16.3461C22.8735 16.3461 21.0771 17.0871 19.6014 18.5691C18.1257 20.0511 17.3878 21.8506 17.3878 23.9678C17.3878 26.0849 18.1288 27.8813 19.6108 29.357C21.0928 30.8327 22.8923 31.5705 25.0094 31.5705ZM25 29.5833C23.4375 29.5833 22.1094 29.0365 21.0156 27.9427C19.9219 26.849 19.375 25.5208 19.375 23.9583C19.375 22.3958 19.9219 21.0677 21.0156 19.974C22.1094 18.8802 23.4375 18.3333 25 18.3333C26.5625 18.3333 27.8906 18.8802 28.9844 19.974C30.0781 21.0677 30.625 22.3958 30.625 23.9583C30.625 25.5208 30.0781 26.849 28.9844 27.9427C27.8906 29.0365 26.5625 29.5833 25 29.5833ZM25.0057 37.5C20.4934 37.5 16.3809 36.272 12.6683 33.8161C8.95565 31.3602 6.1752 28.0743 4.32693 23.9583C6.1752 19.8424 8.95374 16.5565 12.6626 14.1006C16.3713 11.6446 20.4819 10.4167 24.9943 10.4167C29.5066 10.4167 33.6191 11.6446 37.3317 14.1006C41.0444 16.5565 43.8248 19.8424 45.6731 23.9583C43.8248 28.0743 41.0463 31.3602 37.3375 33.8161C33.6287 36.272 29.5181 37.5 25.0057 37.5ZM25 35.4167C28.9236 35.4167 32.5261 34.3837 35.8073 32.3177C39.0886 30.2517 41.5972 27.4653 43.3333 23.9583C41.5972 20.4514 39.0886 17.6649 35.8073 15.599C32.5261 13.533 28.9236 12.5 25 12.5C21.0764 12.5 17.474 13.533 14.1927 15.599C10.9115 17.6649 8.40279 20.4514 6.66667 23.9583C8.40279 27.4653 10.9115 30.2517 14.1927 32.3177C17.474 34.3837 21.0764 35.4167 25 35.4167Z" fill="#1C1B1F"/>
</g>
</g>
</g>
<defs>
<clipPath id="clip0_567_568">
<rect width="50" height="50" fill="white"/>
</clipPath>
</defs>
</svg>
