<svg width="50" height="50" viewBox="0 0 50 50" fill="none" xmlns="http://www.w3.org/2000/svg">
<g id="Icon=VisibilityOff" clip-path="url(#clip0_567_587)">
<g id="visibility_off">
<mask id="mask0_567_587" style="mask-type:alpha" maskUnits="userSpaceOnUse" x="0" y="0" width="50" height="50">
<rect id="Bounding box" width="50" height="50" fill="#D9D9D9"/>
</mask>
<g mask="url(#mask0_567_587)">
<path id="visibility_off_2" d="M32.1795 26.3461L30.5208 24.6875C30.8333 22.8686 30.3179 21.2941 28.9744 19.964C27.6309 18.6338 26.063 18.125 24.2708 18.4375L22.6122 16.7789C22.9621 16.6346 23.3273 16.5264 23.7079 16.4543C24.0886 16.3822 24.5192 16.3461 25 16.3461C27.1234 16.3461 28.923 17.084 30.3987 18.5597C31.8744 20.0354 32.6122 21.8349 32.6122 23.9583C32.6122 24.4391 32.5761 24.8831 32.504 25.2905C32.4319 25.6978 32.3237 26.0497 32.1795 26.3461ZM38.7661 32.7484L37.1875 31.3542C38.507 30.3472 39.6788 29.2448 40.7031 28.0469C41.7274 26.849 42.6042 25.4861 43.3333 23.9583C41.5972 20.4514 39.1059 17.6649 35.8594 15.599C32.6129 13.533 28.9931 12.5 25 12.5C23.9931 12.5 23.0035 12.5694 22.0313 12.7083C21.059 12.8472 20.1042 13.0556 19.1667 13.3333L17.5401 11.7067C18.75 11.25 19.9813 10.9208 21.234 10.7191C22.4866 10.5175 23.742 10.4167 25 10.4167C29.5219 10.4167 33.6579 11.6593 37.4079 14.1446C41.1579 16.6299 43.9129 19.9012 45.6731 23.9583C44.9279 25.633 43.9844 27.2069 42.8426 28.6799C41.7008 30.1529 40.3419 31.5091 38.7661 32.7484ZM41.0897 44.0385L32.9808 35.9535C32.0593 36.3622 30.9155 36.7221 29.5493 37.0333C28.1831 37.3444 26.6667 37.5 25 37.5C20.4514 37.5 16.3154 36.2573 12.5921 33.772C8.86884 31.2867 6.11378 28.0155 4.32693 23.9583C5.13621 22.1181 6.20324 20.3946 7.52803 18.7881C8.85282 17.1815 10.2671 15.8334 11.7708 14.7436L5.96152 8.91026L7.43589 7.43588L42.5641 42.5641L41.0897 44.0385ZM13.2452 16.218C12.0513 17.0673 10.8307 18.1838 9.58334 19.5673C8.33601 20.9509 7.36379 22.4145 6.66667 23.9583C8.40279 27.4653 10.8941 30.2517 14.1406 32.3177C17.3872 34.3837 21.007 35.4167 25 35.4167C26.2019 35.4167 27.4132 35.2998 28.6338 35.0661C29.8544 34.8324 30.7719 34.5967 31.3862 34.359L27.9888 30.9375C27.6603 31.1218 27.2022 31.2734 26.6146 31.3922C26.027 31.5111 25.4888 31.5705 25 31.5705C22.8766 31.5705 21.0771 30.8327 19.6014 29.357C18.1257 27.8813 17.3878 26.0817 17.3878 23.9583C17.3878 23.4963 17.4472 22.9781 17.5661 22.4039C17.685 21.8296 17.8365 21.3515 18.0208 20.9695L13.2452 16.218Z" fill="#1C1B1F"/>
</g>
</g>
</g>
<defs>
<clipPath id="clip0_567_587">
<rect width="50" height="50" fill="white"/>
</clipPath>
</defs>
</svg>
